<svg width="150" height="150" viewBox="0 0 150 150" fill="none" xmlns="http://www.w3.org/2000/svg">
<path fill-rule="evenodd" clip-rule="evenodd" d="M137.5 95.625C139.916 95.625 141.875 97.5838 141.875 100C141.875 123.127 123.127 141.875 100 141.875C97.5838 141.875 95.625 139.916 95.625 137.5C95.625 135.084 97.5838 133.125 100 133.125C118.294 133.125 133.125 118.294 133.125 100C133.125 97.5838 135.084 95.625 137.5 95.625Z" fill="black"/>
<path fill-rule="evenodd" clip-rule="evenodd" d="M95.625 12.5C95.625 10.0838 97.5838 8.12501 100 8.12501C123.127 8.12501 141.875 26.8731 141.875 50C141.875 52.4162 139.916 54.375 137.5 54.375C135.084 54.375 133.125 52.4162 133.125 50C133.125 31.7056 118.294 16.875 100 16.875C97.5838 16.875 95.625 14.9163 95.625 12.5Z" fill="black"/>
<path fill-rule="evenodd" clip-rule="evenodd" d="M12.5 54.375C10.0838 54.375 8.125 52.4162 8.125 50C8.125 26.8731 26.8731 8.125 50 8.125C52.4162 8.125 54.375 10.0838 54.375 12.5C54.375 14.9162 52.4162 16.875 50 16.875C31.7056 16.875 16.875 31.7056 16.875 50C16.875 52.4162 14.9162 54.375 12.5 54.375Z" fill="black"/>
<path fill-rule="evenodd" clip-rule="evenodd" d="M54.375 137.5C54.375 139.916 52.4162 141.875 50 141.875C26.8731 141.875 8.12501 123.127 8.12501 100C8.12501 97.5838 10.0838 95.625 12.5 95.625C14.9163 95.625 16.875 97.5838 16.875 100C16.875 118.294 31.7056 133.125 50 133.125C52.4162 133.125 54.375 135.084 54.375 137.5Z" fill="black"/>
<path fill-rule="evenodd" clip-rule="evenodd" d="M88.3008 84.2383C88.0402 84.2376 87.5864 84.2704 86.388 84.3623C82.6316 84.6503 78.2784 84.8957 74.3294 84.8957C70.5459 84.8957 66.3404 84.6705 62.6351 84.3985C61.3927 84.3074 60.9208 84.2748 60.6549 84.2768C57.0917 84.3041 54.3255 86.6065 53.652 90.1057C53.6016 90.3678 53.555 90.7745 53.4349 91.8701C53.3192 92.9247 53.2794 93.3078 53.2734 93.6014C53.1953 97.3808 56.0581 100.575 59.8236 100.909C60.1161 100.935 60.5012 100.937 61.5621 100.937L87.4921 100.937C88.6584 100.937 89.0835 100.935 89.397 100.905C93.3326 100.53 96.2262 97.0464 95.8735 93.1087C95.8454 92.795 95.77 92.3767 95.5562 91.2302C95.3622 90.1899 95.2885 89.8053 95.2204 89.5527C94.3403 86.2923 91.6778 84.2475 88.3008 84.2383ZM86.2033 79.9886C87.2048 79.9118 87.8524 79.8621 88.3127 79.8633C93.6625 79.8779 98.05 83.2476 99.4442 88.4126C99.5641 88.8568 99.6711 89.4306 99.8337 90.303L99.8819 90.5615C100.062 91.5269 100.182 92.1686 100.231 92.7184C100.798 99.0529 96.1435 104.656 89.8123 105.26C89.2628 105.313 88.61 105.312 87.6279 105.312L61.5621 105.312C61.5208 105.312 61.48 105.312 61.4399 105.312C60.5451 105.312 59.9487 105.313 59.4366 105.267C53.3792 104.729 48.7737 99.591 48.8993 93.511C48.9099 92.997 48.975 92.4041 49.0726 91.5146C49.077 91.4748 49.0815 91.4343 49.086 91.3932C49.0909 91.3483 49.0957 91.3042 49.1005 91.2608C49.2011 90.3425 49.2671 89.7401 49.3559 89.2788C50.4234 83.7324 54.9734 79.9452 60.6214 79.9019C61.0914 79.8983 61.7613 79.9476 62.7994 80.0238C62.8505 80.0276 62.9024 80.0314 62.9553 80.0353C66.6113 80.3036 70.6978 80.5207 74.3294 80.5207C78.1197 80.5207 82.3488 80.2842 86.0536 80.0001L86.2033 79.9886Z" fill="black"/>
<path fill-rule="evenodd" clip-rule="evenodd" d="M60.3125 59.375C60.3125 51.2633 66.8883 44.6875 75 44.6875C83.1117 44.6875 89.6875 51.2633 89.6875 59.375V61.1607C89.6875 68.2862 83.9112 74.0625 76.7857 74.0625H73.2143C66.0888 74.0625 60.3125 68.2862 60.3125 61.1607V59.375ZM75 49.0625C69.3046 49.0625 64.6875 53.6796 64.6875 59.375V61.1607C64.6875 65.8699 68.5051 69.6875 73.2143 69.6875H76.7857C81.4949 69.6875 85.3125 65.8699 85.3125 61.1607V59.375C85.3125 53.6796 80.6954 49.0625 75 49.0625Z" fill="black"/>
</svg>
