<?xml version="1.0" encoding="UTF-8"?>
<svg width="700pt" height="700pt" version="1.1" viewBox="0 0 700 700" xmlns="http://www.w3.org/2000/svg" xmlns:xlink="http://www.w3.org/1999/xlink">
 <defs>
  <symbol id="m" overflow="visible">
   <path d="m29.312-1.75c-1.5117 0.78125-3.0898 1.3711-4.7344 1.7656-1.6367 0.40625-3.3398 0.60938-5.1094 0.60938-5.3125 0-9.5273-1.4844-12.641-4.4531-3.1055-2.9688-4.6562-7-4.6562-12.094s1.5508-9.125 4.6562-12.094c3.1133-2.9688 7.3281-4.4531 12.641-4.4531 1.7695 0 3.4727 0.19922 5.1094 0.59375 1.6445 0.39844 3.2227 0.99219 4.7344 1.7812v6.5938c-1.5312-1.0391-3.0391-1.8008-4.5156-2.2812-1.4805-0.48828-3.0391-0.73438-4.6719-0.73438-2.9375 0-5.2461 0.94531-6.9219 2.8281-1.6797 1.875-2.5156 4.4648-2.5156 7.7656 0 3.293 0.83594 5.8828 2.5156 7.7656 1.6758 1.875 3.9844 2.8125 6.9219 2.8125 1.6328 0 3.1914-0.23828 4.6719-0.71875 1.4766-0.48828 2.9844-1.2539 4.5156-2.2969z"/>
  </symbol>
  <symbol id="b" overflow="visible">
   <path d="m21.453-17.406c-0.67969-0.3125-1.3516-0.53906-2.0156-0.6875-0.65625-0.15625-1.3203-0.23438-1.9844-0.23438-1.9688 0-3.4844 0.63281-4.5469 1.8906-1.0547 1.2617-1.5781 3.0703-1.5781 5.4219v11.016h-7.6562v-23.922h7.6562v3.9219c0.97656-1.5625 2.1016-2.7031 3.375-3.4219 1.2812-0.71875 2.8125-1.0781 4.5938-1.0781 0.25 0 0.52344 0.011719 0.82812 0.03125 0.30078 0.023438 0.73438 0.070312 1.2969 0.14062z"/>
  </symbol>
  <symbol id="c" overflow="visible">
   <path d="m27.562-12.031v2.1875h-17.891c0.1875 1.793 0.83203 3.1367 1.9375 4.0312 1.1133 0.89844 2.6719 1.3438 4.6719 1.3438 1.6016 0 3.25-0.23438 4.9375-0.70312 1.6875-0.47656 3.4219-1.2031 5.2031-2.1719v5.8906c-1.8047 0.6875-3.6094 1.2031-5.4219 1.5469-1.8125 0.35156-3.6211 0.53125-5.4219 0.53125-4.3359 0-7.7031-1.0977-10.109-3.2969-2.3984-2.207-3.5938-5.2969-3.5938-9.2656 0-3.9062 1.1758-6.9727 3.5312-9.2031 2.3633-2.2383 5.6094-3.3594 9.7344-3.3594 3.7578 0 6.7695 1.1367 9.0312 3.4062 2.2578 2.2617 3.3906 5.2812 3.3906 9.0625zm-7.8594-2.5312c0-1.457-0.42969-2.6289-1.2812-3.5156-0.84375-0.89453-1.9492-1.3438-3.3125-1.3438-1.4922 0-2.6992 0.41797-3.625 1.25-0.91797 0.83594-1.4922 2.0391-1.7188 3.6094z"/>
  </symbol>
  <symbol id="a" overflow="visible">
   <path d="m14.391-10.766c-1.5938 0-2.793 0.27344-3.5938 0.8125-0.80469 0.54297-1.2031 1.3398-1.2031 2.3906 0 0.96875 0.32031 1.7305 0.96875 2.2812 0.64453 0.54297 1.5469 0.8125 2.7031 0.8125 1.4375 0 2.6445-0.51562 3.625-1.5469 0.98828-1.0312 1.4844-2.3203 1.4844-3.875v-0.875zm11.688-2.8906v13.656h-7.7031v-3.5469c-1.0312 1.4492-2.1875 2.5078-3.4688 3.1719s-2.8398 1-4.6719 1c-2.4805 0-4.4961-0.72266-6.0469-2.1719-1.543-1.4453-2.3125-3.3203-2.3125-5.625 0-2.8125 0.96094-4.8672 2.8906-6.1719 1.9375-1.3125 4.9688-1.9688 9.0938-1.9688h4.5156v-0.60938c0-1.207-0.48047-2.0938-1.4375-2.6562-0.94922-0.5625-2.4375-0.84375-4.4688-0.84375-1.6367 0-3.1562 0.16797-4.5625 0.5-1.4062 0.32422-2.7188 0.8125-3.9375 1.4688v-5.8281c1.6445-0.40625 3.2891-0.70703 4.9375-0.90625 1.6562-0.20703 3.3047-0.3125 4.9531-0.3125 4.3203 0 7.4375 0.85547 9.3438 2.5625 1.9141 1.6992 2.875 4.4609 2.875 8.2812z"/>
  </symbol>
  <symbol id="h" overflow="visible">
   <path d="m12.031-30.719v6.7969h7.875v5.4688h-7.875v10.141c0 1.1172 0.21875 1.8711 0.65625 2.2656 0.4375 0.38672 1.3125 0.57812 2.625 0.57812h3.9375v5.4688h-6.5625c-3.0234 0-5.1641-0.62891-6.4219-1.8906-1.2617-1.2578-1.8906-3.3984-1.8906-6.4219v-10.141h-3.7969v-5.4688h3.7969v-6.7969z"/>
  </symbol>
  <symbol id="g" overflow="visible">
   <path d="m19.953-20.422v-12.812h7.6875v33.234h-7.6875v-3.4531c-1.0547 1.4062-2.2148 2.4375-3.4844 3.0938-1.2734 0.65625-2.7422 0.98438-4.4062 0.98438-2.9492 0-5.3711-1.1719-7.2656-3.5156-1.8867-2.3438-2.8281-5.3594-2.8281-9.0469s0.94141-6.7031 2.8281-9.0469c1.8945-2.3438 4.3164-3.5156 7.2656-3.5156 1.6562 0 3.1172 0.33594 4.3906 1 1.2812 0.65625 2.4453 1.6836 3.5 3.0781zm-5.0469 15.484c1.6445 0 2.8945-0.59766 3.75-1.7969 0.86328-1.1953 1.2969-2.9297 1.2969-5.2031 0-2.2812-0.43359-4.0195-1.2969-5.2188-0.85547-1.1953-2.1055-1.7969-3.75-1.7969-1.625 0-2.8711 0.60156-3.7344 1.7969-0.85547 1.1992-1.2812 2.9375-1.2812 5.2188 0 2.2734 0.42578 4.0078 1.2812 5.2031 0.86328 1.1992 2.1094 1.7969 3.7344 1.7969z"/>
  </symbol>
  <symbol id="f" overflow="visible">
   <path d="m16.406-4.9375c1.6328 0 2.8828-0.59766 3.75-1.7969 0.86328-1.1953 1.2969-2.9297 1.2969-5.2031 0-2.2812-0.43359-4.0195-1.2969-5.2188-0.86719-1.1953-2.1172-1.7969-3.75-1.7969-1.6367 0-2.8906 0.60547-3.7656 1.8125-0.875 1.1992-1.3125 2.9336-1.3125 5.2031 0 2.2617 0.4375 3.9961 1.3125 5.2031 0.875 1.1992 2.1289 1.7969 3.7656 1.7969zm-5.0781-15.484c1.0508-1.3945 2.2188-2.4219 3.5-3.0781 1.2812-0.66406 2.7539-1 4.4219-1 2.9453 0 5.3672 1.1719 7.2656 3.5156 1.8945 2.3438 2.8438 5.3594 2.8438 9.0469s-0.94922 6.7031-2.8438 9.0469c-1.8984 2.3438-4.3203 3.5156-7.2656 3.5156-1.668 0-3.1406-0.33594-4.4219-1s-2.4492-1.6914-3.5-3.0781v3.4531h-7.6562v-33.234h7.6562z"/>
  </symbol>
  <symbol id="e" overflow="visible">
   <path d="m0.53125-23.922h7.6562l6.4219 16.234 5.4688-16.234h7.6562l-10.062 26.188c-1.0117 2.6641-2.1953 4.5234-3.5469 5.5781-1.3438 1.0625-3.1211 1.5938-5.3281 1.5938h-4.4219v-5.0156h2.3906c1.3008 0 2.2422-0.21094 2.8281-0.625 0.59375-0.40625 1.0547-1.1484 1.3906-2.2188l0.20312-0.65625z"/>
  </symbol>
  <symbol id="d" overflow="visible">
   <path d="m19.422-33.234v5.0156h-4.2344c-1.0859 0-1.8398 0.19922-2.2656 0.59375-0.42969 0.38672-0.64062 1.0625-0.64062 2.0312v1.6719h6.5312v5.4688h-6.5312v18.453h-7.6406v-18.453h-3.8125v-5.4688h3.8125v-1.6719c0-2.6016 0.72266-4.5234 2.1719-5.7656 1.457-1.25 3.707-1.875 6.75-1.875z"/>
  </symbol>
  <symbol id="l" overflow="visible">
   <path d="m27.734-14.562v14.562h-7.7031v-11.156c0-2.0625-0.046875-3.4844-0.14062-4.2656-0.085937-0.78125-0.24219-1.3594-0.46875-1.7344-0.30469-0.5-0.71094-0.88281-1.2188-1.1562-0.51172-0.28125-1.0938-0.42188-1.75-0.42188-1.5938 0-2.8516 0.61719-3.7656 1.8438-0.90625 1.2305-1.3594 2.9375-1.3594 5.125v11.766h-7.6562v-23.922h7.6562v3.5c1.1445-1.3945 2.3633-2.4219 3.6562-3.0781 1.3008-0.66406 2.7383-1 4.3125-1 2.7578 0 4.8516 0.85156 6.2812 2.5469 1.4375 1.6875 2.1562 4.1523 2.1562 7.3906z"/>
  </symbol>
  <symbol id="k" overflow="visible">
   <path d="m3.4219-9.3125v-14.609h7.6875v2.3906c0 1.293-0.011719 2.918-0.03125 4.875-0.011719 1.9609-0.015625 3.2656-0.015625 3.9219 0 1.9297 0.046875 3.3125 0.14062 4.1562 0.10156 0.84375 0.28125 1.4609 0.53125 1.8438 0.3125 0.5 0.71875 0.88672 1.2188 1.1562 0.50781 0.27344 1.0938 0.40625 1.75 0.40625 1.5938 0 2.8438-0.60938 3.75-1.8281 0.91406-1.2266 1.375-2.9297 1.375-5.1094v-11.812h7.6406v23.922h-7.6406v-3.4531c-1.1562 1.3867-2.3828 2.4141-3.6719 3.0781-1.2812 0.66406-2.6992 1-4.25 1-2.7734 0-4.8828-0.84766-6.3281-2.5469-1.4375-1.6953-2.1562-4.1602-2.1562-7.3906z"/>
  </symbol>
  <symbol id="j" overflow="visible">
   <path d="m19.953-4.0625c-1.0547 1.3984-2.2148 2.4219-3.4844 3.0781-1.2734 0.65625-2.7422 0.98438-4.4062 0.98438-2.918 0-5.3281-1.1484-7.2344-3.4531-1.9062-2.3008-2.8594-5.2266-2.8594-8.7812 0-3.582 0.95312-6.5156 2.8594-8.7969s4.3164-3.4219 7.2344-3.4219c1.6641 0 3.1328 0.32812 4.4062 0.98438 1.2695 0.64844 2.4297 1.6797 3.4844 3.0938v-3.5469h7.6875v21.516c0 3.8438-1.2148 6.7734-3.6406 8.7969-2.4297 2.0312-5.9492 3.0469-10.562 3.0469-1.5 0-2.9492-0.11719-4.3438-0.34375-1.3984-0.21875-2.7969-0.57031-4.2031-1.0469v-5.9531c1.3438 0.76953 2.6562 1.3438 3.9375 1.7188s2.5664 0.5625 3.8594 0.5625c2.5078 0 4.3477-0.54688 5.5156-1.6406 1.1641-1.0938 1.75-2.8047 1.75-5.1406zm-5.0469-14.891c-1.5742 0-2.8047 0.58984-3.6875 1.7656-0.88672 1.168-1.3281 2.8203-1.3281 4.9531 0 2.1875 0.42578 3.8516 1.2812 4.9844 0.85156 1.1367 2.0977 1.7031 3.7344 1.7031 1.5938 0 2.832-0.58203 3.7188-1.75 0.88281-1.1758 1.3281-2.8203 1.3281-4.9375 0-2.1328-0.44531-3.7852-1.3281-4.9531-0.88672-1.1758-2.125-1.7656-3.7188-1.7656z"/>
  </symbol>
  <symbol id="i" overflow="visible">
   <path d="m27.734-14.562v14.562h-7.7031v-11.109c0-2.0938-0.046875-3.5312-0.14062-4.3125-0.085937-0.78125-0.24219-1.3594-0.46875-1.7344-0.30469-0.5-0.71094-0.88281-1.2188-1.1562-0.51172-0.28125-1.0938-0.42188-1.75-0.42188-1.5938 0-2.8516 0.61719-3.7656 1.8438-0.90625 1.2305-1.3594 2.9375-1.3594 5.125v11.766h-7.6562v-33.234h7.6562v12.812c1.1445-1.3945 2.3633-2.4219 3.6562-3.0781 1.3008-0.66406 2.7383-1 4.3125-1 2.7578 0 4.8516 0.85156 6.2812 2.5469 1.4375 1.6875 2.1562 4.1523 2.1562 7.3906z"/>
  </symbol>
 </defs>
 <g>
  <path d="m344.75 210.88c-6.125 0.875-11.375 5.25-11.375 10.5 0 4.375 5.25 8.75 11.375 10.5z"/>
  <path d="m364.88 251.12c0-4.375-5.25-8.75-11.375-10.5v20.125c6.125-0.875 11.375-5.25 11.375-9.625z"/>
  <path d="m603.75 500.5c-0.875-2.625-32.375-74.375-75.25-105.88-41.125-30.625-73.5-35.875-115.5-20.125-11.375 4.375-25.375 9.625-39.375 13.125l-47.25-28.875c-4.375-2.625-8.75-1.75-13.125 0.875-1.75 1.75-3.5 4.375-4.375 7l-15.75-12.25c-4.375-3.5-10.5-4.375-14.875-0.875-4.375 2.625-7 7-7 11.375v0.875l-3.5-2.625c-4.375-3.5-11.375-4.375-16.625-0.875-4.375 2.625-7 7-7.875 12.25s0.875 9.625 4.375 13.125c2.625 2.625 59.5 73.5 106.75 80.5 21.875 3.5 39.375 0 54.25-2.625 16.625-3.5 31.5-6.125 50.75 0.875 34.125 12.25 41.125 36.75 41.125 37.625 0.875 1.75 2.625 3.5 4.375 3.5h0.875c2.625-0.875 3.5-2.625 3.5-5.25 0-0.875-7.875-28.875-46.375-42.875-21-7.875-37.625-4.375-55.125-1.75-14.875 2.625-30.625 5.25-51.625 2.625-43.75-7-100.62-77-101.5-77.875-1.75-1.75-2.625-4.375-1.75-6.125 0-2.625 1.75-4.375 3.5-6.125 1.75-0.875 4.375-0.875 6.125 0l29.75 25.375c33.25 28 55.125 33.25 57.75 34.125 15.75 4.375 41.125 7.875 70-5.25 1.75-0.875 3.5-3.5 2.625-5.25-0.875-2.625-3.5-3.5-5.25-2.625-27.125 11.375-49.875 8.75-64.75 4.375-5.25-1.75-7.875-7-7.875-13.125 0.875-5.25 5.25-10.5 9.625-9.625 17.5 0.875 43.75-8.75 62.125-15.75 32.375-12.25 63-14 106.75 18.375 41.125 30.625 72.625 102.38 72.625 102.38 0.875 1.75 2.625 2.625 4.375 2.625h1.75c1.75 0 2.625-2.625 1.75-5.25zm-267.75-84.875c-9.625-4.375-22.75-12.25-38.5-26.25-0.875-0.875-8.75-7.875-15.75-17.5-0.875-1.75-1.75-3.5-1.75-5.25s1.75-4.375 3.5-5.25 3.5-0.875 5.25 0.875l49.875 37.625c-1.75 2.625-2.625 5.25-2.625 7.875-0.875 2.625-0.875 5.25 0 7.875zm17.5-25.375c-3.5 0-7 0.875-9.625 2.625l-24.5-18.375-0.875-0.875c-0.875-0.875-1.75-1.75-1.75-3.5s0.875-2.625 1.75-3.5 2.625-0.875 3.5 0l38.5 23.625h-7z"/>
  <path d="m260.75 236.25c0 49 39.375 88.375 88.375 88.375s88.375-39.375 88.375-88.375c0-41.125-28-75.25-66.5-84.875-9.625-75.25-84-99.75-130.38-98-51.625 1.75-139.12 0-140 0-2.625 0-4.375 1.75-4.375 3.5 0 2.625 1.75 4.375 4.375 5.25 0.875 0 89.25 1.75 140.88 0 43.75-1.75 110.25 20.125 120.75 87.5-4.375-0.875-8.75-0.875-13.125-0.875-9.625 0-19.25 1.75-28 4.375-21-14-39.375-19.25-56-15.75-11.375-10.5-25.375-20.125-38.5-22.75-2.625 0-4.375 0.875-5.25 3.5 0 2.625 0.875 4.375 3.5 5.25 13.125 2.625 32.375 15.75 50.75 37.625 7.875 9.625 17.5 15.75 26.25 21 2.625 1.75 6.125 3.5 8.75 6.125 5.25 3.5 7 10.5 3.5 14.875-3.5 5.25-11.375 7.875-18.375 5.25-5.25-2.625-11.375-4.375-18.375-7-10.5-3.5-22.75-7.875-38.5-14.875-21-8.75-34.125-18.375-42-24.5-10.5-8.75-24.5-13.125-39.375-13.125h-56.875c-2.625 0-4.375 1.75-4.375 4.375s1.75 4.375 4.375 4.375h57.75c13.125 0 24.5 4.375 34.125 11.375 11.375 9.625 26.25 17.5 43.75 25.375 12.25 5.25 21.875 8.75 30.625 11.375-4.375 9.625-6.125 20.125-6.125 30.625zm34.125-70c-4.375-3.5-8.75-7-13.125-11.375-2.625-3.5-6.125-7-9.625-10.5 11.375 0 24.5 3.5 38.5 12.25-5.25 2.625-10.5 6.125-15.75 9.625zm-12.25 45.5 9.625 3.5c-2.625 7-3.5 14-3.5 21 0 33.25 27.125 60.375 60.375 60.375s60.375-27.125 60.375-60.375-27.125-60.375-60.375-60.375c-11.375 0-21.875 2.625-30.625 8.75l-8.75-6.125c4.375-3.5 9.625-6.125 14.875-7.875h0.875c7.875-2.625 15.75-4.375 24.5-4.375 38.5 0 70.875 31.5 70.875 70.875 0 38.5-31.5 70.875-70.875 70.875-38.5 0-70.875-31.5-70.875-70.875-0.875-9.625 0.875-17.5 3.5-25.375zm42 9.625c0-9.625 8.75-17.5 20.125-19.25v-6.125c0-2.625 1.75-4.375 4.375-4.375s4.375 1.75 4.375 4.375v6.125c11.375 1.75 20.125 9.625 20.125 19.25 0 2.625-1.75 4.375-4.375 4.375s-4.375-1.75-4.375-4.375c0-5.25-5.25-8.75-11.375-10.5v21c11.375 1.75 20.125 9.625 20.125 19.25s-8.75 17.5-20.125 19.25v6.125c0 2.625-1.75 4.375-4.375 4.375s-4.375-1.75-4.375-4.375v-6.125c-11.375-1.75-20.125-9.625-20.125-19.25 0-2.625 1.75-4.375 4.375-4.375s4.375 1.75 4.375 4.375c0 4.375 5.25 8.75 11.375 10.5v-21c-11.375-2.625-20.125-10.5-20.125-19.25z"/>
  <use x="70" y="691.25" xlink:href="#m"/>
  <use x="102.109375" y="691.25" xlink:href="#b"/>
  <use x="123.683594" y="691.25" xlink:href="#c"/>
  <use x="153.355469" y="691.25" xlink:href="#a"/>
  <use x="182.878906" y="691.25" xlink:href="#h"/>
  <use x="203.792969" y="691.25" xlink:href="#c"/>
  <use x="233.464844" y="691.25" xlink:href="#g"/>
  <use x="280.011719" y="691.25" xlink:href="#f"/>
  <use x="311.328125" y="691.25" xlink:href="#e"/>
  <use x="355.078125" y="691.25" xlink:href="#d"/>
  <use x="374.113281" y="691.25" xlink:href="#a"/>
  <use x="403.636719" y="691.25" xlink:href="#b"/>
  <use x="425.210937" y="691.25" xlink:href="#b"/>
  <use x="446.789062" y="691.25" xlink:href="#a"/>
  <use x="491.542969" y="691.25" xlink:href="#l"/>
  <use x="522.6875" y="691.25" xlink:href="#k"/>
  <use x="553.835938" y="691.25" xlink:href="#j"/>
  <use x="585.152344" y="691.25" xlink:href="#b"/>
  <use x="606.726562" y="691.25" xlink:href="#a"/>
  <use x="636.25" y="691.25" xlink:href="#i"/>
  <use x="667.398438" y="691.25" xlink:href="#a"/>
 </g>
</svg>
