<svg height="185" viewBox="0 0 721 185" width="721" xmlns="http://www.w3.org/2000/svg"><g fill="none" fill-rule="evenodd" transform="matrix(0 -1 1 0 0 185)"><path d="m.8084 611.5196c1.6693-6.2481 71.7188 49.8589 100.0816 40.5042 14.9981-4.6668 13.3288-51.4071 18.3425-51.4071 5.0077 0 18.3245 90.41102 5.8333 98.92807-17.5419 13.28384-127.5958-80.23277-124.2574-88.02517m161.7829 109.05492c-11.9855 0-21.68-9.0588-21.68-20.25161 0-11.17981 9.6945-20.25161 21.68-20.25161 11.9794 0 21.6749 9.0718 21.6749 20.25161 0 11.19281-9.6955 20.25161-21.6749 20.25161" fill="#ed342b"/><g fill="#003c58"><path d="m105.5114 40.2954c0-12.8431-10.4112-23.2562-23.2562-23.2562-12.8431 0-23.2543 10.4131-23.2543 23.2562 0 12.843 10.4112 23.2562 23.2543 23.2562 12.845 0 23.2562-10.4132 23.2562-23.2562zm-64.8809 29.8291 8.1822-8.1782c-4.0462-6.2351-6.4021-13.6666-6.4021-21.6509 0-22.0068 17.8388-39.8475 39.8446-39.8475 22.0087 0 39.8475 17.8407 39.8475 39.8475 0 22.0058-17.8388 39.8465-39.8475 39.8465-8.2422 0-15.9017-2.5048-22.2587-6.7929l-9.8884 9.8885zm48.5101 505.8677 12.7261 2.3859s5.5934-18.4275-4.7718-33.4065h-50.9064v15.9086l41.3608-.002c4.7738 6.363 1.5913 15.114 1.5913 15.114m-14.8837-394.9022c4.0581 0 7.8833.6577 11.4776 1.974 3.5934 1.3184 6.7249 3.2216 9.3947 5.7124 2.6707 2.4918 4.7878 5.5154 6.354 9.0768 1.5643 3.5583 2.3499 7.6155 2.3499 12.1713 0 2.9877-.2678 5.7294-.8016 8.2202-.5337 2.4909-1.2984 4.9138-2.2969 7.2607l-12.7051-3.3085c.5707-1.4953 1.0695-3.1345 1.4943-4.9117.4288-1.7812.6417-3.7753.6417-5.9803 0-4.6988-1.4583-8.2041-4.378-10.5161-2.9196-2.3129-6.7618-3.4694-11.5306-3.4694-5.0537 0-8.9689 1.0855-11.7436 3.2555-2.7767 2.171-4.1651 5.9603-4.1651 11.3708 0 1.9211.177 3.9861.5338 6.1931.3578 2.205.9246 4.234 1.7082 6.0862l-13.024 2.2419c-.7846-1.8521-1.4583-4.1651-2.028-6.9418-.5708-2.7757-.8546-5.8373-.8546-9.1817 0-5.1246.7646-9.5366 2.2939-13.2369 1.5293-3.7022 3.6133-6.7458 6.2461-9.1287 2.6338-2.3889 5.7474-4.1291 9.3427-5.2326 3.5943-1.1035 7.4915-1.6552 11.6906-1.6552m18.2429 193.2047c0-10.3402-11.1348-11.1368-11.1348-11.1368v22.2717s11.1348-.7947 11.1348-11.1349m-22.2717 24.6576v-35.7944s-11.9334.7966-11.9334 16.7053c0 7.9513 2.3879 15.9086 2.3879 15.9086l-12.7261 1.5892s-3.1806-7.9543-3.1806-19.0891c0-15.9096 7.9543-30.226 30.224-30.226 17.4999 0 28.6347 11.1339 28.6347 27.0435 0 23.8629-23.8609 25.4542-33.4065 23.8629m22.2717 108.9104c0-10.3412-11.1348-11.1358-11.1348-11.1358v22.2726s11.1348-.7966 11.1348-11.1368m-22.2717 24.6575v-35.7933s-11.9334.7946-11.9334 16.7032c0 7.9543 2.3879 15.9066 2.3879 15.9066l-12.7261 1.5913s-3.1806-7.9513-3.1806-19.0882c0-15.9096 7.9543-30.2269 30.224-30.2269 17.4999 0 28.6347 11.1378 28.6347 27.0464 0 23.8609-23.8609 25.4522-33.4065 23.8609"/><path d="m46.182 168.861v-15.907h56.161v15.907z"/><path d="m102.3346 141.697-50.8764.027s-6.388-7.9813-6.388-25.4812c0-15.9066 7.9543-24.6555 25.4542-24.6555h31.8122v15.9066h-31.8122c-11.1378 0-11.9315 5.5684-11.9315 10.3392 0 4.7748 2.3859 7.9593 2.3859 7.9593l41.3558-.005zm-20.1537 111.9193c1.6982 1.5663 3.4664 3.1805 5.3055 4.8518 1.8392 1.6712 3.6623 3.2904 5.4665 4.8537 1.8072 1.5643 3.5224 3.0406 5.1496 4.427 1.6262 1.3873 3.0436 2.5778 4.248 3.5733v18.9182c-4.337-3.7762-8.474-7.4575-12.4152-11.0528-3.9412-3.5944-8.0073-7.5265-12.1984-11.7986-1.9241 2.136-4.225 4.341-6.8978 6.622-2.6757 2.2759-5.4374 4.4829-8.2911 6.6169-2.8517 2.139-5.7034 4.0941-8.556 5.8733-2.8527 1.7811-5.4535 3.2764-7.8054 4.4849v-18.2925c1.8551-1.1375 3.9042-2.4359 6.1541-3.8892 2.247-1.4563 4.4959-3.0026 6.7419-4.6369 2.246-1.6352 4.405-3.3594 6.475-5.1706 2.067-1.8111 3.8162-3.6063 5.2456-5.3805h-24.6166v-15.9086h70.1904l2.8067 15.9086zm34.1906 46.601 2.8077 15.9086h-16.5503v15.7437h-13.2399v-15.7437h-19.7498c-3.3474 0-6.0172.5878-8.0073 1.7612-1.9941 1.1745-2.9896 3.5394-2.9896 7.1017 0 1.7082.1599 3.4694.4798 5.2846.3208 1.8141.7636 3.4694 1.3354 4.9647l-12.3873 2.2409c-.7836-1.9211-1.4583-4.0571-2.029-6.406-.5668-2.3469-.8507-5.2316-.8507-8.648 0-4.344.5858-7.9363 1.7602-10.782 1.1745-2.8487 2.8117-5.1246 4.9108-6.8348 2.098-1.7082 4.6438-2.9017 7.6344-3.5764 2.9896-.6786 6.2991-1.0145 9.9284-1.0145zm-71.2525 132.8226c.0699-4.6299.5697-8.3821 1.4923-11.2658.9256-2.8816 2.226-5.1626 3.9002-6.8308 1.6702-1.6762 3.7003-2.8147 6.0852-3.4184 2.3838-.6057 5.0726-.9076 8.0622-.9076h51.719l2.8077 15.9086h-51.3232c-1.4273 0-2.7067.106-3.8472.3209-1.1375.2129-2.099.6227-2.8807 1.2274-.7856.6047-1.4253 1.4763-1.9221 2.6168-.4997 1.1375-.8186 2.6697-.9595 4.5909zm0 35.9316c.0699-4.6298.5697-8.3831 1.4923-11.2657.9256-2.8827 2.226-5.1637 3.9002-6.8319 1.6702-1.6742 3.7003-2.8147 6.0852-3.4184 2.3838-.6047 5.0726-.9076 8.0622-.9076h51.719l2.8077 15.9086h-51.3232c-1.4273 0-2.7067.108-3.8472.3209-1.1375.2139-2.099.6227-2.8807 1.2274-.7856.6048-1.4253 1.4773-1.9221 2.6168-.4997 1.1385-.8186 2.6698-.9595 4.5909z"/></g></g></svg>